<?xml version="1.0" encoding="UTF-8"?>
<svg width="45px" height="45px" viewBox="0 0 45 45" version="1.1" xmlns="http://www.w3.org/2000/svg" xmlns:xlink="http://www.w3.org/1999/xlink">
    <title>74B5C3D5-19B5-4EE7-9D3B-584505F162E0</title>
    <g id="Page-1" stroke="none" stroke-width="1" fill="none" fill-rule="evenodd">
        <g id="OLB-Having-Trouble-With-Copy" transform="translate(-618.000000, -296.000000)">
            <g id="icon_password_45" transform="translate(640.500000, 318.500000) scale(-1, 1) translate(-640.500000, -318.500000) translate(618.000000, 296.000000)">
                <g id="Group-3" transform="translate(0.000000, 0.000000)" fill="#0074E7">
                    <path d="M45,22.4967857 C44.9983929,10.0703571 34.9240179,-0.00160714286 22.4967857,0 C10.0711607,0.000803571429 -0.00160714286,10.0759821 0,22.5032143 C0.00241071429,34.9288393 10.0767857,45.0016071 22.5032143,45 C34.9296429,44.9983929 45.0016071,34.9232143 45,22.4967857" id="Fill-1"></path>
                </g>
                <path d="M31.7991696,17.1691875 C30.9883661,17.9791875 29.6745268,17.9791875 28.8645268,17.1691875 C28.0537232,16.3583839 28.0537232,15.0445446 28.8645268,14.2345446 C29.6745268,13.4237411 30.9883661,13.4237411 31.7991696,14.2345446 C32.6099732,15.0445446 32.6099732,16.3583839 31.7991696,17.1691875 M33.1387232,12.8949911 C30.1799732,9.93624107 25.3842589,9.93624107 22.4255089,12.8949911 C20.0774732,15.2430268 19.6001518,18.7465982 20.9798839,21.5719554 L11.2847946,31.2670446 C11.1457768,31.4060625 11.0734554,31.5981161 11.0871161,31.7941875 L11.2550625,34.2844554 C11.2727411,34.5424018 11.4768482,34.7481161 11.7355982,34.7657946 L14.2379196,34.9449911 C14.4339911,34.9594554 14.6276518,34.8871339 14.7674732,34.7473125 L15.5413125,33.9734732 L15.5413125,32.2425804 L17.2722054,32.2425804 L17.3027411,32.2112411 L17.3027411,30.4803482 L19.0336339,30.4803482 L19.0641696,30.4498125 L19.0641696,28.7189196 L20.7958661,28.7189196 L20.8264018,28.6875804 L20.8264018,26.9566875 L22.5572946,26.9566875 L24.4609554,25.0538304 C27.2871161,26.4327589 30.7906875,25.9562411 33.1387232,23.6074018 C36.0974732,20.6494554 36.0974732,15.8529375 33.1387232,12.8949911" id="Fill-4" fill="#FFFFFF"></path>
            </g>
        </g>
    </g>
</svg>